<?xml version="1.0" encoding="utf-8"?>
<!-- Generator: Adobe Illustrator 19.0.0, SVG Export Plug-In . SVG Version: 6.00 Build 0)  -->
<svg version="1.1" id="Layer_1" xmlns="http://www.w3.org/2000/svg" xmlns:xlink="http://www.w3.org/1999/xlink" x="0px" y="0px"
	 viewBox="0 0 841.9 595.3" style="enable-background:new 0 0 841.9 595.3;" xml:space="preserve">
<style type="text/css">
	.st0{opacity:0.15;}
	.st1{fill:#22AAD7;}
	.st2{fill:#187289;}
	.st3{fill:#4FC7EE;}
	.st4{fill:url(#XMLID_69_);}
	.st5{fill:#FFFFFF;}
	.st6{opacity:0.5;fill:url(#XMLID_70_);}
	.st7{fill:#686868;}
</style>
<g id="XMLID_9_">
	<g id="XMLID_8_">
		<g id="XMLID_1936_">
			<g id="XMLID_1954_" class="st0">
				
					<image style="overflow:visible;" width="1200" height="1238" id="XMLID_27_" xlink:href="BEAC6ABA.png"  transform="matrix(0.24 0 0 0.24 10 56)">
				</image>
			</g>
			<path id="XMLID_1953_" class="st1" d="M154,92C94.4,92,46,140.4,46,200c0,59.6,48.4,108,108,108s108-48.4,108-108V92H154z"/>
			<g id="XMLID_1950_">
				<path id="XMLID_1952_" class="st2" d="M154,308c59.6,0,108-48.4,108-108c0,59.1-48.4,107.1-108,107.1S46,259.1,46,200
					C46,259.6,94.4,308,154,308z"/>
				<path id="XMLID_1951_" class="st3" d="M154,92.9h108V92H154C94.4,92,46,140.4,46,200C46,140.9,94.4,92.9,154,92.9z"/>
			</g>
			<g id="XMLID_1946_">
				<linearGradient id="XMLID_69_" gradientUnits="userSpaceOnUse" x1="-3.4648" y1="32.4648" x2="243.1054" y2="279.0351">
					<stop  offset="0" style="stop-color:#0E5668"/>
					<stop  offset="1" style="stop-color:#0A5A6D;stop-opacity:0"/>
				</linearGradient>
				<path id="XMLID_1949_" class="st4" d="M262,200v-39.4l-35.2-35.2l-56.3-7.9l-24.4,19.1l-21.5-21.7l-7.7,3.4l-18.3,17.2l-9,27
					l-1.3,99l44.4,44.4c6.9,1.4,14.1,2.1,21.4,2.1C213.6,308,262,259.6,262,200z"/>
			</g>
			<g id="XMLID_1943_" class="st0">
				
					<image style="overflow:visible;" width="1030" height="1052" id="XMLID_30_" xlink:href="BEAC6ABE.png"  transform="matrix(0.24 0 0 0.24 28 79.0838)">
				</image>
			</g>
			<g id="XMLID_1937_" class="st0">
				
					<image style="overflow:visible;" width="764" height="778" id="XMLID_54_" xlink:href="BEAC6AB9.png"  transform="matrix(0.24 0 0 0.24 96.7842 74)">
				</image>
			</g>
		</g>
		<g id="XMLID_2_" class="st0">
			<path id="XMLID_7_" d="M181,255c-44.7,0-81-36.3-81-81c0-22.8,9.4-43.3,24.6-58.1C89.3,128.1,64,161.6,64,201
				c0,49.7,40.3,90,90,90c39.4,0,72.9-25.3,85.1-60.6C224.3,245.6,203.8,255,181,255z"/>
			<path id="XMLID_3_" d="M191.5,135.7h-9.3v37.1l29.3,17.6l4.6-7.6l-24.7-14.6V135.7z M188.4,111c-30.7,0-55.6,24.9-55.6,55.6
				c0,30.7,24.8,55.6,55.6,55.6c30.7,0,55.6-24.9,55.6-55.6C244,135.9,219.1,111,188.4,111z M188.4,209.9
				c-23.9,0-43.3-19.3-43.3-43.3c0-23.9,19.3-43.3,43.3-43.3s43.3,19.3,43.3,43.3C231.6,190.5,212.3,209.9,188.4,209.9z"/>
		</g>
	</g>
	<g id="XMLID_1_">
		<path id="XMLID_109_" class="st5" d="M181,254c-44.7,0-81-36.3-81-81c0-22.8,9.4-43.3,24.6-58.1C89.3,127.1,64,160.6,64,200
			c0,49.7,40.3,90,90,90c39.4,0,72.9-25.3,85.1-60.6C224.3,244.6,203.8,254,181,254z"/>
		<path id="XMLID_105_" class="st5" d="M191.5,134.7h-9.3v37.1l29.3,17.6l4.6-7.6l-24.7-14.6V134.7z M188.4,110
			c-30.7,0-55.6,24.9-55.6,55.6c0,30.7,24.8,55.6,55.6,55.6c30.7,0,55.6-24.9,55.6-55.6C244,134.9,219.1,110,188.4,110z
			 M188.4,208.9c-23.9,0-43.3-19.3-43.3-43.3c0-23.9,19.3-43.3,43.3-43.3s43.3,19.3,43.3,43.3C231.6,189.5,212.3,208.9,188.4,208.9z
			"/>
	</g>
	<linearGradient id="XMLID_70_" gradientUnits="userSpaceOnUse" x1="-60.0171" y1="-45.6496" x2="275.6299" y2="289.9974">
		<stop  offset="0" style="stop-color:#FFFFFF"/>
		<stop  offset="1" style="stop-color:#FFFFFF;stop-opacity:0"/>
	</linearGradient>
	<path id="XMLID_102_" class="st6" d="M154,92C94.4,92,46,140.4,46,200c0,59.6,48.4,108,108,108s108-48.4,108-108V92H154z"/>
</g>
<g id="XMLID_11_">
	<path id="XMLID_45_" class="st1" d="M428.9,92c-59.6,0-108,48.4-108,108c0,59.6,48.4,108,108,108s108-48.4,108-108V92H428.9z"/>
	<path id="XMLID_18_" class="st5" d="M455.9,254c-44.7,0-81-36.3-81-81c0-22.8,9.4-43.3,24.6-58.1c-35.2,12.2-60.6,45.7-60.6,85.1
		c0,49.7,40.3,90,90,90c39.4,0,72.9-25.3,85.1-60.6C499.3,244.6,478.7,254,455.9,254z"/>
	<path id="XMLID_14_" class="st5" d="M466.4,134.7h-9.3v37.1l29.3,17.6l4.6-7.6l-24.7-14.6V134.7z M463.3,110
		c-30.7,0-55.6,24.9-55.6,55.6c0,30.7,24.8,55.6,55.6,55.6c30.7,0,55.6-24.9,55.6-55.6C518.9,134.9,494,110,463.3,110z M463.3,208.9
		c-23.9,0-43.3-19.3-43.3-43.3c0-23.9,19.3-43.3,43.3-43.3s43.3,19.3,43.3,43.3C506.6,189.5,487.2,208.9,463.3,208.9z"/>
</g>
<g id="XMLID_12_">
	<path id="XMLID_23_" class="st7" d="M687.9,92c-59.6,0-108,48.4-108,108c0,59.6,48.4,108,108,108s108-48.4,108-108V92H687.9z"/>
	<path id="XMLID_22_" class="st5" d="M714.9,254c-44.7,0-81-36.3-81-81c0-22.8,9.4-43.3,24.6-58.1c-35.2,12.2-60.6,45.7-60.6,85.1
		c0,49.7,40.3,90,90,90c39.4,0,72.9-25.3,85.1-60.6C758.3,244.6,737.7,254,714.9,254z"/>
	<path id="XMLID_13_" class="st5" d="M725.4,134.7h-9.3v37.1l29.3,17.6l4.6-7.6l-24.7-14.6V134.7z M722.3,110
		c-30.7,0-55.6,24.9-55.6,55.6c0,30.7,24.8,55.6,55.6,55.6c30.7,0,55.6-24.9,55.6-55.6C777.9,134.9,753,110,722.3,110z M722.3,208.9
		c-23.9,0-43.3-19.3-43.3-43.3c0-23.9,19.3-43.3,43.3-43.3s43.3,19.3,43.3,43.3C765.6,189.5,746.2,208.9,722.3,208.9z"/>
</g>
<g id="XMLID_24_">
	<g id="XMLID_34_">
		<path id="XMLID_47_" class="st7" d="M789.9,345.8v102c0,56.2-45.8,102-102,102s-102-45.8-102-102s45.8-102,102-102H789.9
			 M795.9,339.8h-108c-59.6,0-108,48.4-108,108c0,59.6,48.4,108,108,108s108-48.4,108-108V339.8L795.9,339.8z"/>
	</g>
	<path id="XMLID_33_" class="st7" d="M714.9,501.8c-44.7,0-81-36.3-81-81c0-22.8,9.4-43.3,24.6-58.1c-35.2,12.2-60.6,45.7-60.6,85.1
		c0,49.7,40.3,90,90,90c39.4,0,72.9-25.3,85.1-60.6C758.3,492.4,737.7,501.8,714.9,501.8z"/>
	<path id="XMLID_26_" class="st7" d="M725.4,382.5h-9.3v37.1l29.3,17.6l4.6-7.6L725.4,415V382.5z M722.3,357.8
		c-30.7,0-55.6,24.9-55.6,55.6c0,30.7,24.8,55.6,55.6,55.6c30.7,0,55.6-24.9,55.6-55.6C777.9,382.7,753,357.8,722.3,357.8z
		 M722.3,456.7c-23.9,0-43.3-19.3-43.3-43.3c0-23.9,19.3-43.3,43.3-43.3s43.3,19.3,43.3,43.3C765.6,437.3,746.2,456.7,722.3,456.7z"
		/>
</g>
<g id="XMLID_35_">
	<path id="XMLID_41_" class="st7" d="M530.9,345.8v102c0,56.2-45.8,102-102,102s-102-45.8-102-102s45.8-102,102-102H530.9
		 M536.9,339.8h-108c-59.6,0-108,48.4-108,108c0,59.6,48.4,108,108,108s108-48.4,108-108V339.8L536.9,339.8z"/>
	<path id="XMLID_40_" class="st7" d="M455.9,501.8c-44.7,0-81-36.3-81-81c0-22.8,9.4-43.3,24.6-58.1c-35.2,12.2-60.6,45.7-60.6,85.1
		c0,49.7,40.3,90,90,90c39.4,0,72.9-25.3,85.1-60.6C499.3,492.4,478.7,501.8,455.9,501.8z"/>
	<path id="XMLID_36_" class="st7" d="M466.4,382.5h-9.3v37.1l29.3,17.6l4.6-7.6L466.4,415V382.5z M463.3,357.8
		c-30.7,0-55.6,24.9-55.6,55.6c0,30.7,24.8,55.6,55.6,55.6c30.7,0,55.6-24.9,55.6-55.6C518.9,382.7,494,357.8,463.3,357.8z
		 M463.3,456.7c-23.9,0-43.3-19.3-43.3-43.3c0-23.9,19.3-43.3,43.3-43.3s43.3,19.3,43.3,43.3C506.6,437.3,487.2,456.7,463.3,456.7z"
		/>
</g>
<g id="XMLID_43_">
	<path id="XMLID_57_" class="st7" d="M304.1,447.4v52.7c0,29-23.6,52.7-52.7,52.7s-52.7-23.6-52.7-52.7c0-29,23.6-52.7,52.7-52.7
		H304.1 M307.2,444.3h-55.8c-30.8,0-55.8,25-55.8,55.8c0,30.8,25,55.8,55.8,55.8s55.8-25,55.8-55.8V444.3L307.2,444.3z"/>
	<path id="XMLID_56_" class="st7" d="M265.4,527.9c-23.1,0-41.8-18.7-41.8-41.8c0-11.8,4.9-22.4,12.7-30
		c-18.2,6.3-31.3,23.6-31.3,43.9c0,25.7,20.8,46.5,46.5,46.5c20.3,0,37.6-13.1,43.9-31.3C287.8,523.1,277.1,527.9,265.4,527.9z"/>
	<path id="XMLID_44_" class="st7" d="M270.8,466.3H266v19.1l15.2,9.1l2.4-3.9l-12.8-7.6V466.3z M269.2,453.6
		c-15.9,0-28.7,12.9-28.7,28.7c0,15.9,12.8,28.7,28.7,28.7c15.9,0,28.7-12.9,28.7-28.7C297.9,466.4,285.1,453.6,269.2,453.6z
		 M269.2,504.6c-12.3,0-22.3-10-22.3-22.3c0-12.3,10-22.3,22.3-22.3c12.3,0,22.3,10,22.3,22.3C291.5,494.6,281.5,504.6,269.2,504.6z
		"/>
</g>
<g id="XMLID_60_">
	<path id="XMLID_66_" class="st7" d="M173.9,497.2v28.5c0,15.7-12.8,28.5-28.5,28.5s-28.5-12.8-28.5-28.5
		c0-15.7,12.8-28.5,28.5-28.5H173.9 M175.5,495.5h-30.2c-16.7,0-30.2,13.5-30.2,30.2s13.5,30.2,30.2,30.2s30.2-13.5,30.2-30.2V495.5
		L175.5,495.5z"/>
	<path id="XMLID_65_" class="st7" d="M152.9,540.7c-12.5,0-22.6-10.1-22.6-22.6c0-6.4,2.6-12.1,6.9-16.2
		c-9.8,3.4-16.9,12.8-16.9,23.8c0,13.9,11.3,25.1,25.1,25.1c11,0,20.4-7.1,23.8-16.9C165,538.1,159.3,540.7,152.9,540.7z"/>
	<path id="XMLID_61_" class="st7" d="M155.8,507.4h-2.6v10.4l8.2,4.9l1.3-2.1l-6.9-4.1V507.4z M155,500.5c-8.6,0-15.5,7-15.5,15.5
		c0,8.6,6.9,15.5,15.5,15.5c8.6,0,15.5-7,15.5-15.5C170.5,507.5,163.5,500.5,155,500.5z M155,528.1c-6.7,0-12.1-5.4-12.1-12.1
		c0-6.7,5.4-12.1,12.1-12.1c6.7,0,12.1,5.4,12.1,12.1C167.1,522.7,161.7,528.1,155,528.1z"/>
</g>
</svg>
